<svg id="Layer_5" enable-background="new 0 0 64 64" height="512" viewBox="0 0 64 64" width="512" xmlns="http://www.w3.org/2000/svg"><g><g><g><path d="m38 26-1 4h-2-6-2l-1-4z" fill="#aab2bd"/></g><g><path d="m40 22v2c0 1.1-.9 2-2 2h-12c-1.1 0-2-.9-2-2v-2c0-2.61 1.67-4.84 4-5.65.63-.23 1.3-.35 2-.35h4c.7 0 1.37.12 2 .35 2.33.81 4 3.04 4 5.65z" fill="#ccd1d9"/></g><g><path d="m34.72 11.07c.79.73 1.28 1.77 1.28 2.93v1.82.53c-.63-.23-1.3-.35-2-.35h-4c-.7 0-1.37.12-2 .35v-.53-1.82c0-1.16.49-2.2 1.28-2.93.71-.66 1.67-1.07 2.72-1.07s2.01.41 2.72 1.07z" fill="#aab2bd"/></g><g><path d="m29.28 11.07c-.79.73-1.28 1.77-1.28 2.93v1.82c-.31.11-.65.18-1 .18-1.66 0-3-1.34-3-3s1.34-3 3-3c.92 0 1.73.42 2.28 1.07z" fill="#656d78"/></g><g><path d="m37 10c1.66 0 3 1.34 3 3s-1.34 3-3 3c-.35 0-.69-.07-1-.18v-1.82c0-1.16-.49-2.2-1.28-2.93.55-.65 1.36-1.07 2.28-1.07z" fill="#656d78"/></g><g><path d="m42.46 32c-.69-1.2-1.98-2-3.46-2h-14c-1.48 0-2.77.8-3.46 2-.34.59-.54 1.27-.54 2v2 11s1 9 11 9 11-9 11-9v-11-2c0-.73-.2-1.41-.54-2z" fill="#b4dd7f"/></g><g><path d="m35 30-1 4h-2-2l-1-4z" fill="#a0d468"/></g></g><g><path d="m38 46.63c-.177.959-.847 3.088-3.332 3.962l.664 1.887c3.56-1.253 4.44-4.329 4.654-5.595l.014-13.884h-2z"/><path d="m26 46.616v-13.616h-2v13.705l.015.17c.219 1.269 1.11 4.354 4.653 5.604l.664-1.887c-2.395-.844-3.116-2.819-3.332-3.976z"/><path d="m31 59h2v5h-2z"/><path d="m36.167 57.973h2v5h-2z" transform="matrix(.924 -.383 .383 .924 -20.311 18.824)"/><path d="m40.546 55.046h2v4.999h-2z" transform="matrix(.707 -.707 .707 .707 -28.523 46.232)"/><path d="m19.954 56.546h4.999v2h-4.999z" transform="matrix(.707 -.707 .707 .707 -34.114 32.732)"/><path d="m24.334 59.473h5v2h-5z" transform="matrix(.383 -.924 .924 .383 -39.305 62.113)"/><path d="m49.938 32.623 8.095-4.497c.148-.083.316-.126.486-.126h4.481v-2h-4.481c-.51 0-1.014.13-1.457.377l-8.095 4.497c-.148.083-.316.126-.486.126h-5.507c-.914-1.207-2.348-2-3.974-2h-.72l.531-2.126c1.259-.356 2.189-1.503 2.189-2.874v-1h4.566l3-5h3.434v-2h-4.566l-3 5h-3.514c-.247-1.717-1.115-3.233-2.374-4.312 1.44-.606 2.454-2.03 2.454-3.688 0-2.206-1.794-4-4-4-.798 0-1.56.259-2.212.702 1.112-3.241 3.419-6.702 8.212-6.702v-2c-6.218 0-8.95 4.702-10.115 8.089-.288-.051-.582-.089-.885-.089s-.597.038-.885.089c-1.165-3.387-3.897-8.089-10.115-8.089v2c4.793 0 7.1 3.461 8.212 6.702-.652-.443-1.414-.702-2.212-.702-2.206 0-4 1.794-4 4 0 1.658 1.014 3.082 2.454 3.688-1.259 1.079-2.126 2.595-2.374 4.312h-3.513l-3-5h-4.567v2h3.434l3 5h4.566v1c0 1.371.93 2.518 2.188 2.874l.532 2.126h-.72c-1.627 0-3.061.793-3.974 2h-5.507c-.17 0-.338-.043-.486-.125l-8.093-4.497c-.445-.248-.949-.378-1.459-.378h-4.481v2h4.481c.17 0 .338.043.486.125l8.093 4.497c.445.248.949.378 1.459.378h4.583c-.067.323-.102.658-.102 1v1h-2.867c-1.047 0-2.033.558-2.573 1.456l-7.834 13.058c-.18.299-.509.486-.859.486h-4.867v2h4.867c1.047 0 2.033-.558 2.573-1.456l7.834-13.058c.18-.3.509-.486.858-.486h2.868v10l.006.11c.012.099 1.223 9.89 11.994 9.89s11.982-9.791 11.994-9.89l.005-10.11h2.869c.35 0 .679.187.858.485l7.834 13.06c.54.897 1.526 1.455 2.573 1.455h4.867v-2h-4.867c-.35 0-.679-.187-.858-.485l-7.834-13.06c-.541-.897-1.527-1.455-2.574-1.455h-2.867v-1c0-.342-.035-.677-.101-1h4.583c.509 0 1.013-.13 1.456-.377zm-10.938-19.623c0 1.103-.897 2-2 2v-1c0-1.035-.316-1.997-.857-2.796.266-.131.557-.204.857-.204 1.103 0 2 .897 2 2zm-4 1v1.08c-.328-.047-.66-.08-1-.08h-4c-.34 0-.672.033-1 .08v-1.08c0-1.654 1.346-3 3-3s3 1.346 3 3zm-8-3c.3 0 .591.073.857.204-.541.799-.857 1.761-.857 2.796v1c-1.103 0-2-.897-2-2s.897-2 2-2zm-2 11c0-2.757 2.243-5 5-5h4c2.757 0 5 2.243 5 5v2c0 .551-.448 1-1 1h-12c-.552 0-1-.449-1-1zm2.28 5h9.439l-.5 2h-8.439zm3.501 6-.501-2h3.439l-.501 2zm11.219 13.938c-.097.717-1.241 7.462-9 8.009v-11.947h-2v11.947c-7.767-.548-8.905-7.306-9-8.009v-12.938c0-1.654 1.346-3 3-3h3.219l.999 4h1.782v6h2v-6h1.781l.999-4h3.22c1.654 0 3 1.346 3 3z"/></g></g></svg>