<svg id="Layer_1" height="512" viewBox="0 0 512 512" width="512" xmlns="http://www.w3.org/2000/svg" data-name="Layer 1"><path d="m466.49 336-6 46.42h-26.83l-6-46.42z" fill="#c79a83"/><path d="m466.49 216.3v119.7h-38.83v-119.7h19.87z" fill="#daaa79"/><path d="m358.44 421.22v18.36a12.01 12.01 0 0 1 -12 12h-22.7v-77.07h22.7a12 12 0 0 1 12 12z" fill="#49bdff"/><path d="m45.51 433.56v34.54a24 24 0 0 0 24 24h230.23a23.993 23.993 0 0 0 24-24v-34.54z" fill="#f43b3b"/><path d="m45.51 172.64h278.23v260.92h-278.23z" fill="#ff5a81"/><path d="m230.89 19.9h-92.53a17.374 17.374 0 0 0 -17.37 17.37v.82a17.374 17.374 0 0 0 17.37 17.37h92.53a17.368 17.368 0 0 0 17.37-17.37v-.82a17.368 17.368 0 0 0 -17.37-17.37z" fill="#49bdff"/><path d="m214.13 55.46v25.59h-58.95l-.11-25.59z" fill="#f43b3b"/><path d="m299.74 114.09h-230.23a24.006 24.006 0 0 0 -24 24v34.55h278.23v-34.55a24 24 0 0 0 -24-24z" fill="#f43b3b"/><path d="m230 257.73c-.12-.12-.24-.24-.36-.35a64.158 64.158 0 0 0 -90.73 90.73c.11.12.23.24.35.36a64.163 64.163 0 0 0 90.74-90.74z" fill="#ffdb00"/><path d="m279.51 81.05h-189.77a14 14 0 0 0 -14 14v19.04h217.77v-19.04a14 14 0 0 0 -14-14z" fill="#ff5a81"/><path d="m168.91 348.11a64.161 64.161 0 0 1 30.734-107.4 64.166 64.166 0 0 0 -60.734 107.4c.11.12.23.24.35.36a64.124 64.124 0 0 0 60.367 17.013 63.842 63.842 0 0 1 -30.367-17.013c-.12-.12-.24-.24-.35-.36z" fill="#ffec8d"/><path d="m75.51 468.1v-34.54h-30v34.54a24 24 0 0 0 24 24h30a24 24 0 0 1 -24-24z" fill="#ff8383"/><path d="m45.51 172.64h30v260.92h-30z" fill="#ffabc3"/><path d="m75.51 138.09a24.006 24.006 0 0 1 24-24h-30a24.006 24.006 0 0 0 -24 24v34.55h30z" fill="#ff8383"/><path d="m105.74 114.09v-19.04a14 14 0 0 1 14-14h-30a14 14 0 0 0 -14 14v19.04z" fill="#ffabc3"/><g fill="#284268"><path d="m135.018 352.713a70.163 70.163 0 0 0 99.224-99.226c-.15-.151-.3-.3-.453-.442a70.158 70.158 0 0 0 -99.22 99.208c.144.153.295.307.449.46zm90.74-8.486a58.238 58.238 0 0 1 -78.179 3.7l81.877-81.877a58.248 58.248 0 0 1 -3.698 78.177zm-82.258-82.255a58.321 58.321 0 0 1 77.394-4.335l-81.73 81.731a58.324 58.324 0 0 1 4.336-77.396z"/><path d="m77.97 337.64a6 6 0 0 0 6-6v-99.02a6 6 0 0 0 -12 0v99.02a6 6 0 0 0 6 6z"/><path d="m77.97 220.92a6 6 0 0 0 6-6v-7.03a6 6 0 0 0 -12 0v7.03a6 6 0 0 0 6 6z"/><path d="m466.49 210.3h-12.96v-99.85a41.185 41.185 0 0 0 -12.09-28.938 38.514 38.514 0 0 0 -27.3-11.492h-.1c-21.294.058-39.283 18.568-39.283 40.42l1.98 275.7c.125 12.145-2.007 20.523-6.339 24.9a13.3 13.3 0 0 1 -5.951 3.409v-27.939a18.02 18.02 0 0 0 -18-18h-16.7v-230.42a30.034 30.034 0 0 0 -30-30h-.23v-13.04a20.023 20.023 0 0 0 -20-20h-59.387v-13.59h10.76a23.4 23.4 0 0 0 23.37-23.37v-.82a23.4 23.4 0 0 0 -23.37-23.37h-92.53a23.4 23.4 0 0 0 -23.37 23.37v.82a23.4 23.4 0 0 0 23.37 23.37h10.74l.058 13.59h-59.418a20.023 20.023 0 0 0 -20 20v13.04h-.23a30.034 30.034 0 0 0 -30 30v330.01a30.034 30.034 0 0 0 30 30h230.23a30.034 30.034 0 0 0 30-30v-10.52h16.7a18.021 18.021 0 0 0 18-18v-12.836a25.789 25.789 0 0 0 14.48-7.261c6.763-6.833 9.972-17.779 9.81-33.446l-1.98-275.267v-.33c0-15.365 12.509-28.38 27.316-28.42h.07a26.6 26.6 0 0 1 18.831 7.989 29.107 29.107 0 0 1 8.563 20.441v99.85h-13.87a6 6 0 0 0 -6 6v119.7a5.994 5.994 0 0 0 .05.769l6 46.42a6 6 0 0 0 5.95 5.231h7.87v53.88a6 6 0 0 0 12 0v-53.88h6.96a6 6 0 0 0 5.95-5.231l6-46.42a5.819 5.819 0 0 0 .05-.769v-119.7a6 6 0 0 0 -6-6zm-328.13-160.84a11.383 11.383 0 0 1 -11.37-11.37v-.82a11.383 11.383 0 0 1 11.37-11.37h92.53a11.383 11.383 0 0 1 11.37 11.37v.82a11.383 11.383 0 0 1 -11.37 11.37zm69.77 12v13.59h-46.976l-.054-13.59zm109.61 406.64a18.021 18.021 0 0 1 -18 18h-230.23a18.021 18.021 0 0 1 -18-18v-28.54h266.23zm0-40.54h-266.23v-248.92h266.23zm0-260.92h-266.23v-28.55a18.021 18.021 0 0 1 18-18h46.632a6 6 0 0 0 0-12h-34.402v-13.04a8.009 8.009 0 0 1 8-8h189.77a8.009 8.009 0 0 1 8 8v13.04h-148.43a6 6 0 0 0 0 12h160.66a18.021 18.021 0 0 1 18 18zm34.7 272.94a6.006 6.006 0 0 1 -6 6h-16.7v-65.07h16.7a6.006 6.006 0 0 1 6 6zm102.776-63.16h-16.281l-4.45-34.42h25.18zm5.274-46.42h-26.83v-107.7h26.83z"/></g></svg>