<?xml version="1.0"?>
<svg xmlns="http://www.w3.org/2000/svg" viewBox="0 0 512 512" width="512" height="512"><g id="Agricultural_pests" data-name="Agricultural pests"><g id="Filled"><path d="M403.208,16.488c32.8,27.154-10.475,87.65-47.113,54.42-13.339,9.745-32.574,11.781-47.74,4.885-16.942,35.051-75.311,19.1-67.828-21.9-39.515,13.872-71.485,30.6-97.167,49.3,19.9,24.752,1.832,65.247-31.36,64.814.031,25.592-24.538,45.015-49.463,38.864C32.653,288.142,57.067,376.355,80,432,408.738,560.362,491.513,270.546,504,8.005,504,8.005,461.707,8.67,403.208,16.488Z" style="fill:#81c784"/><path d="M52.327,335.07C57.919,371.9,69.124,405.611,80,432c268.04,104.661,372.556-68.69,408.784-278.585A540.871,540.871,0,0,1,52.327,335.07Z" style="fill:#66bb6a"/><path d="M373.261,159.954c9.972-16.116-11.864-32.926-24.8-19.076-.123.131-.244.264-.363.4L248,241.373V160a16,16,0,0,0-16-16h0a16,16,0,0,0-16,16V273.373l-48,48V232a16,16,0,0,0-16-16h0a16,16,0,0,0-16,16V353.373L12.686,476.686a16,16,0,0,0,0,22.628h0a16,16,0,0,0,22.628,0L158.627,376H296a16,16,0,0,0,16-16h0a16,16,0,0,0-16-16H190.627l180.1-180.1Q372.027,161.951,373.261,159.954Z" style="fill:#49ad4d"/><path d="M304,264l5.559-22.7A43.7,43.7,0,0,1,352,208h0a43.7,43.7,0,0,1,42.441,33.3L400,264v16H304Z" style="fill:#a1887f"/><path d="M384,312H320a64,64,0,0,0-64,64h0a96,96,0,0,0,96,96h0a96,96,0,0,0,96-96h0A64,64,0,0,0,384,312Z" style="fill:#a1887f"/><path d="M400,272v-8l-5.559-22.7a43.64,43.64,0,0,0-18.066-25.865,81.213,81.213,0,0,1-68.426,32.439L304,264v8Z" style="fill:#9c7b70"/><path d="M384,264H320a64,64,0,0,0-64,64v48a64,64,0,0,1,64-64h64a64,64,0,0,1,64,64V328A64,64,0,0,0,384,264Z" style="fill:#bcaaa4"/><circle cx="336" cy="224" r="8" style="fill:#bcaaa4"/><path d="M448,376a63.8,63.8,0,0,0-4.327-23.13C418.2,412.844,355.3,452.727,288,447.548A95.639,95.639,0,0,0,352,472h0a96,96,0,0,0,96-96Z" style="fill:#9c7b70"/><circle cx="288" cy="368" r="16" style="fill:#bcaaa4"/><circle cx="296" cy="408" r="8" style="fill:#bcaaa4"/><circle cx="468.167" cy="51.833" r="28.167" style="fill:#c8e6c9"/><circle cx="456" cy="112" r="16" style="fill:#c8e6c9"/></g><g id="Outline"><path d="M509.657,394.343,488,372.687V336a8,8,0,0,0-4.422-7.155L454.7,314.4a72.049,72.049,0,0,0-25.438-42.346C450.376,255.048,456,254.818,456,248V204.281l20.438-13.625a8,8,0,0,0-8.875-13.312l-24,16c-6.218,4.144-2.421,8.662-3.563,50.656l-25.229,18.922a71.64,71.64,0,0,0-7.547-3.057c-4.368-12.1-3.329-35.449-26.169-50.954C389.418,201.277,424,189.819,424,152a8,8,0,0,0-16,0,36.771,36.771,0,0,1-16.407,30.657l-27.987,18.658a51.869,51.869,0,0,0-23.212,0l-27.987-18.658A36.771,36.771,0,0,1,296,152a8,8,0,0,0-16,0c0,37.874,34.481,49.185,42.945,56.911-22.9,15.542-21.722,38.635-26.169,50.954a71.64,71.64,0,0,0-7.547,3.057L264,244c-1.14-41.928,2.658-46.51-3.562-50.656l-24-16a8,8,0,1,0-8.875,13.312L248,204.281c1.032,42.3-2.393,45.924,3.2,50.119l23.543,17.657A72.049,72.049,0,0,0,249.305,314.4l-28.883,14.442A8,8,0,0,0,216,336v36.687l-21.657,21.656a8,8,0,0,0,11.314,11.314C228.593,381.683,232,381.73,232,376V340.944l16-8c1.518,32.82-4.653,55.64,9.435,86.308l-15.092,15.091c-4.091,4.09-1.6,6.443-2.343,42.344l-21.657,21.656a8,8,0,0,0,11.314,11.314C252.593,485.683,256,485.73,256,480V443.313l9.56-9.56c41.322,61.621,131.506,61.7,172.88,0l9.56,9.56c.74,35.852-1.746,38.255,2.343,42.344l24,24a8,8,0,0,0,11.314-11.314L464,476.687c-.74-35.852,1.746-38.255-2.343-42.344l-15.092-15.091c14.1-30.686,7.912-53.374,9.435-86.308l16,8c.733,34.108-1.741,36.629,2.343,40.713C497.824,404.061,498.2,408,504,408A8.01,8.01,0,0,0,509.657,394.343ZM317.329,243.205c8.856-36.165,60.488-36.158,69.342,0l3.2,13.054c-4.858-.394-70.9-.392-75.736,0ZM296,325.414V384c0,27.241,10.856,54.789,28.9,75.7C260.575,438.839,241.214,351.513,296,325.414Zm64,131.179V400a8,8,0,0,0-16,0v56.593c-19.759-18.58-32-45.766-32-72.593V320.581c6.706-.964,9.081-.421,32-.581v16a8,8,0,0,0,16,0V320c22.95.16,25.3-.383,32,.581V384C392,410.827,379.759,438.012,360,456.593Zm19.1,3.112C397.144,438.789,408,411.241,408,384V325.414C463.321,351.767,442.64,439.094,379.1,459.705ZM440,330.815A71.883,71.883,0,0,0,384,304H320a71.883,71.883,0,0,0-56,26.815V328a56.064,56.064,0,0,1,56-56h64a56.064,56.064,0,0,1,56,56Z"/><path d="M216.288,455.217c-32.158-1.157-67.464-8.051-105.092-20.473L161.943,384H176a8,8,0,0,0,0-16c-14.919.584-19.151-1.532-23.027,2.343C24.1,498.023,30.255,496,24.013,496a8,8,0,0,1-5.666-13.649C153.3,347.38,144,358.1,144,353.37V232.034c.046-10.848,15.987-10.05,16-.034v89.37a8.007,8.007,0,0,0,13.657,5.657l48-48a8,8,0,1,0-11.314-11.314L176,302.057V231.99c-.04-31.129-47.862-32.262-48,.01V350.057L76.942,401.119a394.007,394.007,0,0,1-16.615-66.644,8,8,0,0,0-15.814,2.43,415.651,415.651,0,0,0,19.864,76.779L7.038,471.029C-7.983,486.025,2.615,511.986,24,512a23.993,23.993,0,0,0,16.965-7.029l57.608-57.6c49.394,17.117,93.8,23.849,117.43,23.849C220.291,471.212,226.685,455.591,216.288,455.217Z"/><path d="M49.208,280.021a8,8,0,0,0,7.977-7.508,224.365,224.365,0,0,1,10.7-56.681c24.8,2.158,47.642-15.733,51.536-40.35,32.287-4.908,49.825-42.256,34.865-70.22,22.174-15.242,48.268-28.582,77.8-39.776,3.955,38.094,57.776,51.5,79.77,20.116a57.892,57.892,0,0,0,43.692-4.863c38.413,27.428,81.572-22.393,62.829-58.107,35.587-4.266,63.773-5.812,77.2-6.35a1194.174,1194.174,0,0,1-13.108,126.437,8,8,0,0,0,15.793,2.562c6.771-41.726,11.392-87.783,13.735-136.89a8,8,0,0,0-8.116-8.38c-.427.007-43.434.758-101.725,8.55a8.006,8.006,0,0,0-4.042,14.091C422.72,43.031,390,90.866,361.464,64.984a8,8,0,0,0-10.094-.533c-10.985,8.027-27.313,9.7-39.708,4.057a8,8,0,0,0-10.515,3.8c-12.848,26.585-58.587,15-52.748-16.981a8,8,0,0,0-10.519-8.987C199.4,59.846,166.015,76.8,138.651,96.723a8,8,0,0,0-1.526,11.48c15.657,19.472,1.517,52.114-25.021,51.8a8,8,0,0,0-8.1,8.009c.024,20.434-19.681,35.985-39.543,31.084a8,8,0,0,0-9.426,5.009,237.85,237.85,0,0,0-13.816,67.425A8,8,0,0,0,49.208,280.021Z"/><circle cx="48" cy="304" r="8"/><circle cx="352" cy="368" r="8"/></g></g></svg>
