<svg id="Layer_1" enable-background="new 0 0 512 512" height="512" viewBox="0 0 512 512" width="512" xmlns="http://www.w3.org/2000/svg"><g><g clip-rule="evenodd" fill-rule="evenodd"><path d="m267.438 466.872h141.337c3.204 0 5.811-2.636 5.811-5.839 0-138.049 0-276.126 0-414.175 0-21.742-17.604-39.345-39.346-39.345h-107.802z" fill="#ffd064"/><path d="m66.913 81.355 302.517 4.847c3.628.057 5.811 1.474 5.811 5.839v406.635c0 3.203-2.608 5.839-5.811 5.839h-296.706c-3.203 0-5.811-2.636-5.811-5.839z" fill="#fff6cf"/><path d="m340.289 86.203h29.141c3.628 0 5.811 1.474 5.811 5.839v406.635c0 3.203-2.608 5.839-5.811 5.839h-29.141c3.203 0 5.839-2.636 5.839-5.839v-406.635c0-4.365-2.182-5.839-5.839-5.839z" fill="#fff0af"/><path d="m66.913 86.203c-21.742 0-39.345-17.603-39.345-39.345s17.603-39.345 39.345-39.345h308.328c-21.714 0-39.345 17.603-39.345 39.345s11.792 39.345 33.534 39.345z" fill="#fff0af"/><path d="m346.128 7.512h29.112c-21.714 0-39.345 17.603-39.345 39.345s11.792 39.345 33.534 39.345h-29.141c-21.714 0-33.506-17.603-33.506-39.345.001-21.741 17.605-39.345 39.346-39.345z" fill="#ffe07d"/><path d="m153.484 384.496h288.684v51.789h-288.684z" fill="#dd636e"/><path d="m472.782 436.285h-35.462v-51.789h35.462c6.406 0 11.65 5.244 11.65 11.65v28.488c.001 6.408-5.243 11.651-11.65 11.651z" fill="#9dc6fb"/><path d="m472.782 436.285h-24.265c6.407 0 11.651-5.244 11.651-11.65v-28.488c0-6.406-5.244-11.65-11.651-11.65h24.265c6.406 0 11.65 5.244 11.65 11.65v28.488c.001 6.407-5.243 11.65-11.65 11.65z" fill="#80b4fb"/><path d="m112.58 413.325c-2.721-1.531-2.75-4.28 0-5.839l40.904-22.989v51.789z" fill="#da4a54"/><path d="m408.18 384.496h29.14v51.789h-29.14z" fill="#dd636e"/></g><path d="m382.752 443.797v15.563h24.35v-15.563zm-194.544-132.578c-4.167 0-7.512-3.345-7.512-7.483 0-4.139 3.345-7.512 7.512-7.512h156.532c4.167 0 7.512 3.373 7.512 7.512s-3.345 7.483-7.512 7.483zm0 30.388c-4.167 0-7.512-3.374-7.512-7.512s3.345-7.483 7.512-7.483h115.032c4.167 0 7.512 3.345 7.512 7.483 0 4.139-3.345 7.512-7.512 7.512zm0-113.897c-4.167 0-7.512-3.373-7.512-7.512s3.345-7.512 7.512-7.512h156.532c4.167 0 7.512 3.373 7.512 7.512s-3.345 7.512-7.512 7.512zm0 30.359c-4.167 0-7.512-3.373-7.512-7.512s3.345-7.483 7.512-7.483h115.032c4.167 0 7.512 3.345 7.512 7.483s-3.345 7.512-7.512 7.512zm0-113.897c-4.167 0-7.512-3.374-7.512-7.512s3.345-7.483 7.512-7.483h156.532c4.167 0 7.512 3.345 7.512 7.483 0 4.139-3.345 7.512-7.512 7.512zm0 30.359c-4.167 0-7.512-3.345-7.512-7.512 0-4.139 3.345-7.483 7.512-7.483h115.032c4.167 0 7.512 3.345 7.512 7.483 0 4.167-3.345 7.512-7.512 7.512zm-80.816 111.743h50.315c4.139 0 7.483 3.345 7.483 7.483v50.315c0 4.139-3.345 7.483-7.483 7.483h-50.315c-4.139 0-7.484-3.345-7.484-7.483v-50.315c0-4.138 3.345-7.483 7.484-7.483zm42.804 14.996h-35.291v35.292h35.291zm-42.804-98.534h50.315c4.139 0 7.483 3.345 7.483 7.484v50.315c0 4.139-3.345 7.512-7.483 7.512h-50.315c-4.139 0-7.484-3.374-7.484-7.512v-50.315c0-4.139 3.345-7.484 7.484-7.484zm42.804 14.996h-35.291v35.292h35.291zm-42.804-98.533h50.315c4.139 0 7.483 3.345 7.483 7.483v50.316c0 4.139-3.345 7.512-7.483 7.512h-50.315c-4.139 0-7.484-3.373-7.484-7.512v-50.316c0-4.138 3.345-7.483 7.484-7.483zm42.804 14.995h-35.291v35.292h35.291zm-46.404 269.634 45.638-25.653c1.162-.737 2.552-1.162 4.054-1.162h214.273v-283.299h-293.36v184.651c0 4.139-3.345 7.512-7.483 7.512-4.139 0-7.512-3.373-7.512-7.512v-185.246c-9.921-1.616-18.822-6.321-25.625-13.124-8.476-8.504-13.72-20.212-13.72-33.138s5.245-24.662 13.72-33.138c8.474-8.475 20.209-13.719 33.136-13.719h308.328c12.955 0 24.662 5.244 33.138 13.72s13.72 20.211 13.72 33.138v151.826c0 4.139-3.373 7.512-7.512 7.512s-7.484-3.373-7.484-7.512v-151.827c0-8.788-3.571-16.753-9.326-22.536-5.783-5.754-13.748-9.326-22.536-9.326-8.787 0-16.753 3.572-22.507 9.326-5.783 5.783-9.326 13.748-9.326 22.536s3.543 16.753 9.326 22.507c5.754 5.783 13.72 9.326 22.507 9.326 4.139 0 7.512 3.373 7.512 7.512v290.81h24.35v-144.342c0-4.139 3.346-7.512 7.484-7.512s7.512 3.373 7.512 7.512v144.342h50.684c5.272 0 10.063 2.154 13.549 5.612 3.459 3.458 5.613 8.249 5.613 13.522v28.488c0 5.272-2.154 10.063-5.613 13.522-3.487 3.487-8.277 5.641-13.549 5.641h-50.684v23.074c0 4.139-3.373 7.483-7.512 7.483h-31.834v30.161c0 4.139-3.373 7.484-7.512 7.484h-308.328c-4.139 0-7.512-3.345-7.512-7.484v-192.162c0-4.138 3.373-7.512 7.512-7.512s7.483 3.374 7.483 7.512v184.651h293.361v-53.207h-55.39c-4.138 0-7.483-3.374-7.483-7.512s3.345-7.483 7.483-7.483h117.441v-36.794c-89.604 0-179.236 0-268.84 0v36.794h117.44c4.139 0 7.484 3.345 7.484 7.483 0 4.139-3.345 7.512-7.484 7.512h-124.924c-1.474 0-2.807-.397-4.025-1.191l-45.724-25.682c-3.6-2.013-4.904-6.576-2.863-10.177.709-1.274 1.729-2.267 2.92-2.919zm42.18-6.519-23.272 13.097 23.272 13.067zm298.832 31.493h27.979c1.134 0 2.183-.482 2.948-1.247.737-.737 1.219-1.786 1.219-2.92v-28.488c0-1.134-.482-2.154-1.219-2.92-.765-.765-1.814-1.219-2.948-1.219h-27.979zm-400.427-359.437c5.783 5.783 13.748 9.326 22.536 9.326h273.971c-7.738-8.334-12.501-19.531-12.501-31.834 0-12.302 4.762-23.499 12.501-31.862h-273.971c-8.788 0-16.753 3.572-22.536 9.326-5.754 5.783-9.326 13.748-9.326 22.536s3.572 16.753 9.326 22.508z"/></g></svg>