<svg id="Capa_1" enable-background="new 0 0 511.231 511.231" height="512" viewBox="0 0 511.231 511.231" width="512" xmlns="http://www.w3.org/2000/svg"><g><g><path d="m199.775 16.315c-.262-4.942-4.346-8.816-9.296-8.816h-33.606c-4.949 0-9.033 3.873-9.296 8.816l-3.612 68.092-1.474 32.346h63.981l-3.086-32.346z" fill="#e4e1e5"/><path d="m203.387 84.407-.796-15h-33.198c-4.139 0-7.431-3.471-7.212-7.604l2.027-38.207c.262-4.943 4.346-8.816 9.296-8.816h26.052c-.931-4.185-4.654-7.281-9.077-7.281h-33.606c-4.949 0-9.033 3.873-9.296 8.816l-3.612 68.092-1.474 32.346h14.635 2.327 47.018z" fill="#cac5cb"/><g><path d="m229.924 125.999-5.699-29.455c-1.363-7.046-7.532-12.136-14.709-12.136h-71.681c-7.177 0-13.346 5.09-14.709 12.136l-5.699 29.455-11.508 49.591h136.641z" fill="#e4e1e5"/><path d="m242.204 174.192-12.279-48.193-2.902-15h-75.994c-5.876 0-10.295-5.356-9.179-11.125l.915-4.728c.937-4.843 4.144-8.761 8.387-10.738h-13.316c-7.177 0-13.346 5.09-14.709 12.136l-5.699 29.456-11.508 49.592h22.203 114.437z" fill="#cac5cb"/><path d="m229.924 125.999h-112.497c-23.046 0-41.728 18.682-41.728 41.728v318.643c0 9.588 7.773 17.361 17.361 17.361h161.231c9.588 0 17.361-7.773 17.361-17.361v-318.643c0-23.046-18.682-41.728-41.728-41.728z" fill="#fcf0b6"/><path d="m129.558 474.455c-9.588 0-17.361-7.773-17.361-17.361v-293.561c0-16.502 9.581-30.764 23.483-37.534h-18.253c-23.046 0-41.728 18.682-41.728 41.728v318.643c0 9.588 7.773 17.361 17.361 17.361h161.231c9.588 0 17.361-7.773 17.361-17.361v-11.915z" fill="#fbe88c"/><g><path d="m173.676 406.824c-4.142 0-7.5-3.358-7.5-7.5v-177.305c0-4.142 3.358-7.5 7.5-7.5s7.5 3.358 7.5 7.5v177.305c0 4.142-3.358 7.5-7.5 7.5z" fill="#e4e1e5"/></g><g><path d="m183.896 248.028h-20.995c-4.142 0-7.5-3.358-7.5-7.5s3.358-7.5 7.5-7.5h20.995c4.142 0 7.5 3.358 7.5 7.5s-3.358 7.5-7.5 7.5z" fill="#e4e1e5"/></g><g><path d="m224.822 433.982c-1.919 0-3.839-.732-5.303-2.197l-9.302-9.302c-1.407-1.406-2.197-3.314-2.197-5.303v-51.522l-38.667-27.284c-3.385-2.388-4.192-7.067-1.804-10.452s7.067-4.193 10.452-1.804l41.844 29.525c1.992 1.405 3.176 3.69 3.176 6.128v52.303l7.105 7.105c2.929 2.929 2.929 7.678 0 10.606-1.465 1.465-3.385 2.197-5.304 2.197z" fill="#e4e1e5"/></g><g id="XMLID_257_"><g><g><g><path d="m182.547 294.179c-1.713 0-3.437-.584-4.846-1.779-3.159-2.678-3.549-7.411-.871-10.571l21.771-25.68 14.271-18.21v-24.602c0-4.142 3.358-7.5 7.5-7.5s7.5 3.358 7.5 7.5v27.191c0 1.677-.562 3.306-1.597 4.626l-15.957 20.361c-.06.076-.12.15-.183.224l-21.864 25.79c-1.482 1.749-3.596 2.65-5.724 2.65z" fill="#e4e1e5"/></g><path d="m230.387 293.705c2.95 2.94 4.77 7.01 4.77 11.5 0 11.48-11.56 19.34-22.24 15.14l-39.24-15.47-39.25 15.47c-10.67 4.2-22.23-3.66-22.23-15.14 0-4.49 1.82-8.56 4.76-11.5 2.95-2.95 7.01-4.77 11.51-4.77h45.21 45.21c4.49 0 8.56 1.82 11.5 4.77z" fill="#e4e1e5"/><g><path d="m159.672 288.879c-2.174 0-4.331-.941-5.813-2.756l-16.732-20.491c-.032-.039-.063-.078-.094-.117l-15.957-20.361c-1.035-1.32-1.597-2.949-1.597-4.626v-27.191c0-4.142 3.358-7.5 7.5-7.5s7.5 3.358 7.5 7.5v24.602l14.313 18.264 16.685 20.433c2.62 3.208 2.143 7.933-1.065 10.553-1.393 1.137-3.072 1.69-4.74 1.69z" fill="#e4e1e5"/></g><path d="m235.157 272.675c0 4.49-1.82 8.55-4.77 11.5-2.94 2.94-7.01 4.76-11.5 4.76h-45.21-45.21c-4.5 0-8.56-1.82-11.51-4.76-2.94-2.95-4.76-7.01-4.76-11.5 0-11.48 11.56-19.35 22.23-15.14l39.25 15.47 39.24-15.47c10.68-4.21 22.24 3.66 22.24 15.14z" fill="#e4e1e5"/></g></g></g><g><path d="m122.53 433.982c-1.919 0-3.839-.732-5.303-2.197-2.929-2.929-2.929-7.678 0-10.606l7.105-7.105v-52.303c0-2.438 1.185-4.723 3.176-6.128l41.843-29.525c3.385-2.389 8.064-1.58 10.452 1.804 2.388 3.385 1.581 8.064-1.804 10.452l-38.667 27.284v51.522c0 1.989-.79 3.897-2.197 5.303l-9.302 9.302c-1.464 1.465-3.383 2.197-5.303 2.197z" fill="#e4e1e5"/></g></g></g><g><path d="m271.652 221.818c-4.142 0-7.5 3.358-7.5 7.5v257.052c0 5.438-4.423 9.861-9.861 9.861h-161.23c-5.438 0-9.861-4.424-9.861-9.861v-20.077c0-4.142-3.358-7.5-7.5-7.5s-7.5 3.358-7.5 7.5v20.077c0 13.708 11.153 24.861 24.861 24.861h161.231c13.708 0 24.861-11.153 24.861-24.861v-257.052c-.001-4.142-3.359-7.5-7.501-7.5z"/><path d="m435.532 35.185h-227.246l-1.022-19.267c-.473-8.926-7.847-15.918-16.785-15.918h-33.606c-8.938 0-16.312 6.992-16.785 15.918l-3.237 61.033c-10.324.453-19.109 7.941-21.087 18.168l-4.604 23.793c-24.194 3.09-42.96 23.795-42.96 48.815v266.604c0 4.142 3.358 7.5 7.5 7.5s7.5-3.358 7.5-7.5v-266.604c0-18.873 15.354-34.228 34.228-34.228h25.509c4.142 0 7.5-3.358 7.5-7.5s-3.358-7.5-7.5-7.5h-16.419l3.972-20.531c.68-3.512 3.769-6.061 7.346-6.061h71.681c3.577 0 6.666 2.549 7.346 6.061l3.972 20.531h-45.936c-4.142 0-7.5 3.358-7.5 7.5s3.358 7.5 7.5 7.5h55.026c18.874 0 34.228 15.354 34.228 34.228v29.629c0 4.142 3.358 7.5 7.5 7.5s7.5-3.358 7.5-7.5v-29.629c0-25.02-18.767-45.725-42.96-48.815l-4.603-23.793c-1.979-10.227-10.763-17.714-21.087-18.168l-1.42-26.766h226.451c4.142 0 7.5-3.358 7.5-7.5s-3.36-7.5-7.502-7.5zm-240.053 41.722h-43.605l3.193-60.194c.051-.96.844-1.713 1.806-1.713h33.606c.962 0 1.755.752 1.806 1.713l.98 18.472h-9.053c-4.142 0-7.5 3.358-7.5 7.5s3.358 7.5 7.5 7.5h9.848z"/><path d="m115.089 324.854c4.004 2.725 8.668 4.123 13.372 4.123 2.942 0 5.9-.547 8.719-1.658l28.996-11.429v12.468l-38.667 27.284c-1.991 1.405-3.176 3.69-3.176 6.128v52.303l-7.105 7.105c-2.929 2.929-2.929 7.678 0 10.606 1.464 1.464 3.384 2.197 5.303 2.197s3.839-.732 5.303-2.197l9.302-9.302c1.407-1.406 2.197-3.314 2.197-5.303v-51.522l26.843-18.941v52.607c0 4.142 3.358 7.5 7.5 7.5s7.5-3.358 7.5-7.5v-52.607l26.844 18.941v51.522c0 1.989.79 3.897 2.197 5.303l9.302 9.302c1.464 1.464 3.384 2.197 5.303 2.197s3.839-.732 5.303-2.197c2.929-2.929 2.929-7.678 0-10.606l-7.105-7.105v-52.303c0-2.438-1.185-4.723-3.176-6.128l-38.667-27.284v-12.468l28.996 11.429c2.819 1.111 5.776 1.658 8.719 1.658 4.703 0 9.369-1.397 13.372-4.123 6.508-4.43 10.394-11.775 10.394-19.648 0-6.29-2.46-12.012-6.463-16.268 4.003-4.256 6.463-9.978 6.463-16.268 0-7.873-3.885-15.218-10.394-19.648-2.815-1.917-5.959-3.173-9.213-3.752l3.226-4.117c1.035-1.32 1.597-2.949 1.597-4.626v-27.191c0-4.142-3.358-7.5-7.5-7.5s-7.5 3.358-7.5 7.5v24.602l-13.104 16.72-18.593 7.328v-13.959h2.72c4.142 0 7.5-3.358 7.5-7.5s-3.358-7.5-7.5-7.5h-2.72v-11.009c0-4.142-3.358-7.5-7.5-7.5s-7.5 3.358-7.5 7.5v11.009h-3.275c-4.142 0-7.5 3.358-7.5 7.5s3.358 7.5 7.5 7.5h3.275v13.959l-18.593-7.328-13.104-16.72v-24.602c0-4.142-3.358-7.5-7.5-7.5s-7.5 3.358-7.5 7.5v27.191c0 1.677.562 3.306 1.597 4.626l3.226 4.116c-3.253.579-6.397 1.836-9.212 3.752-6.508 4.43-10.393 11.775-10.393 19.648 0 6.29 2.46 12.012 6.463 16.268-4.003 4.256-6.463 9.978-6.463 16.268-.002 7.874 3.884 15.219 10.391 19.649zm16.591-11.49c-2.742 1.082-5.713.75-8.149-.909-2.437-1.659-3.834-4.3-3.834-7.248 0-4.835 3.933-8.768 8.768-8.768h37.711v3.328zm92.142-.909c-2.437 1.659-5.405 1.991-8.149.909l-34.497-13.597v-3.328h37.712c4.835 0 8.768 3.933 8.768 8.768 0 2.947-1.398 5.589-3.834 7.248zm-8.149-47.941c2.742-1.08 5.713-.749 8.149.909 2.437 1.659 3.834 4.3 3.834 7.248 0 4.834-3.933 8.768-8.768 8.768h-37.712v-3.328zm-92.143.909c2.437-1.659 5.407-1.99 8.149-.909l34.496 13.597v3.328h-37.711c-4.835 0-8.768-3.933-8.768-8.768 0-2.948 1.398-5.589 3.834-7.248z"/></g></g></svg>