<svg id="Capa_1" enable-background="new 0 0 512 512" height="512" viewBox="0 0 512 512" width="512" xmlns="http://www.w3.org/2000/svg"><g><g><path clip-rule="evenodd" d="m8.414 72.895v373.948c0 11.509 9.411 20.92 20.919 20.92h157.461v-39.912l-73.019-335.992v-39.883h-84.442c-11.508 0-20.919 9.411-20.919 20.919z" fill="#c38c66" fill-rule="evenodd"/></g><g><path clip-rule="evenodd" d="m103.769 91.859 70.723 11.339 73.614-11.339v-40.138c0-6.18-5.046-11.225-11.225-11.225h-27.949c0-18.17-14.683-32.939-32.853-32.995h-.142-.142c-18.17.057-32.881 14.825-32.881 32.995h-27.949c-6.151 0-11.197 5.046-11.197 11.225v40.138z" fill="#ffd772" fill-rule="evenodd"/></g><g><path clip-rule="evenodd" d="m303.55 243.173 15.619 23.827 24.292-23.827v-170.278c0-11.509-9.411-20.92-20.919-20.92h-74.436l-21.106 19.525z" fill="#c38c66" fill-rule="evenodd"/></g><g><path clip-rule="evenodd" d="m48.296 100.93v317.85c0 4.989 4.082 9.071 9.099 9.071h129.398l116.757-184.678v-142.243c0-4.989-4.082-9.071-9.071-9.071h-46.374-144.336-46.374c-5.017 0-9.099 4.082-9.099 9.071z" fill="#eff6ff" fill-rule="evenodd"/></g><g><path clip-rule="evenodd" d="m88.207 136.59v43.824c0 2.636 2.183 4.819 4.819 4.819h43.823c2.636 0 4.819-2.183 4.819-4.819v-43.824c0-2.636-2.183-4.819-4.819-4.819h-43.823c-2.636 0-4.819 2.183-4.819 4.819z" fill="#95d6a4" fill-rule="evenodd"/></g><g><path clip-rule="evenodd" d="m88.207 237.957v43.824c0 2.636 2.183 4.819 4.819 4.819h43.823c2.636 0 4.819-2.183 4.819-4.819v-43.824c0-2.665-2.183-4.819-4.819-4.819h-43.823c-2.636.001-4.819 2.155-4.819 4.819z" fill="#95d6a4" fill-rule="evenodd"/></g><g><path clip-rule="evenodd" d="m88.207 339.325v43.824c0 2.636 2.183 4.819 4.819 4.819h43.823c2.636 0 4.819-2.183 4.819-4.819v-43.824c0-2.665-2.183-4.819-4.819-4.819h-43.823c-2.636 0-4.819 2.154-4.819 4.819z" fill="#95d6a4" fill-rule="evenodd"/></g><g><path clip-rule="evenodd" d="m122.222 387.967c-16.441 16.753-34.44 30.274-53.092 39.884h117.663l.028-120.331c-3.543 0-6.406-2.891-6.406-6.406v-2.665c-10.403 25.058-23.612 47.651-38.749 67.181v17.518c0 2.636-2.183 4.819-4.819 4.819z" fill="#d9eeff" fill-rule="evenodd"/></g><g><path clip-rule="evenodd" d="m207.515 243.173h96.035v-142.243c0-4.989-4.082-9.071-9.071-9.071h-46.374-4.705c6.01 57.742-23.555 139.919-35.885 151.314z" fill="#d9eeff" fill-rule="evenodd"/></g><g><path clip-rule="evenodd" d="m104.223 379.322c-2.863 2.948-5.783 5.839-8.731 8.646h26.73 14.626c2.636 0 4.819-2.183 4.819-4.819v-17.519-26.306c0-1.559-.737-2.92-1.871-3.798-10.176 15.222-22.053 29.934-35.573 43.796z" fill="#78c2a4" fill-rule="evenodd"/></g><g><path clip-rule="evenodd" d="m104.223 277.954c-2.863 2.948-5.783 5.839-8.731 8.646h26.73 14.626c2.636 0 4.819-2.183 4.819-4.819v-17.518-26.306c0-1.559-.737-2.92-1.871-3.798-10.176 15.222-22.053 29.934-35.573 43.795z" fill="#78c2a4" fill-rule="evenodd"/></g><g><path clip-rule="evenodd" d="m104.223 176.587c-2.863 2.948-5.783 5.839-8.731 8.646h26.73 14.626c2.636 0 4.819-2.183 4.819-4.819v-17.518-26.306c0-1.531-.737-2.92-1.871-3.798-10.176 15.222-22.053 29.934-35.573 43.795z" fill="#78c2a4" fill-rule="evenodd"/></g><g><path clip-rule="evenodd" d="m303.55 100.93v142.243h39.911v-170.278c0-11.509-9.411-20.92-20.919-20.92h-27.637c.737 12.756.737 26.107-.028 39.912 4.818.199 8.673 4.196 8.673 9.043z" fill="#b57f5f" fill-rule="evenodd"/></g><g><path clip-rule="evenodd" d="m170.155 91.859h73.245 4.705v-39.883-.255c0-6.18-5.046-11.225-11.225-11.225h-27.949c0-18.17-14.683-32.939-32.853-32.995h-.142-.142c-1.814 0-3.572.142-5.301.425 8.929 11.14 14.343 25.767 14.343 41.783.002 16.185-5.554 30.982-14.681 42.15z" fill="#fbba58" fill-rule="evenodd"/></g><g><path clip-rule="evenodd" d="m186.794 307.52v120.331 39.912 18.624c0 9.95 8.164 18.113 18.113 18.113h274.189c9.949 0 18.085-8.164 18.085-18.113v-178.867l-153.72-20.92z" fill="#eff6ff" fill-rule="evenodd"/></g><g><path clip-rule="evenodd" d="m180.416 249.58v51.534c0 3.515 2.863 6.406 6.406 6.406h310.358c3.487 0 6.378-2.835 6.406-6.321v-.085-51.534-.085c-.028-3.487-2.92-6.321-6.406-6.321-82.174 0-230.083 0-310.358 0-3.543-.001-6.406 2.891-6.406 6.406z" fill="#eb5468" fill-rule="evenodd"/></g><g><path clip-rule="evenodd" d="m397.573 243.173c6.378 20.183 10.715 41.783 12.614 64.347h86.993c3.487 0 6.378-2.835 6.406-6.321v-.085-51.534-.085c-.028-3.487-2.92-6.321-6.406-6.321h-34.553v9.468c0 10.261-8.419 18.68-18.68 18.68-10.29 0-18.68-8.419-18.68-18.68v-9.468h-27.694z" fill="#e5384f" fill-rule="evenodd"/></g><g><path clip-rule="evenodd" d="m221.376 243.173v9.468c0 10.261 8.39 18.68 18.68 18.68s18.68-8.419 18.68-18.68v-9.468-13.89c0-10.261-8.39-18.68-18.68-18.68s-18.68 8.419-18.68 18.68z" fill="#ffd772" fill-rule="evenodd"/></g><g><path clip-rule="evenodd" d="m425.267 243.173v9.468c0 10.261 8.39 18.68 18.68 18.68 10.261 0 18.68-8.419 18.68-18.68v-9.468-13.89c0-10.261-8.419-18.68-18.68-18.68-10.29 0-18.68 8.419-18.68 18.68z" fill="#ffd772" fill-rule="evenodd"/></g><g><path clip-rule="evenodd" d="m231.722 212.559c6.151 3.09 10.375 9.439 10.375 16.724v13.89 9.468c0 7.285-4.224 13.635-10.375 16.724 2.523 1.247 5.357 1.956 8.334 1.956 10.29 0 18.68-8.419 18.68-18.68v-9.468-13.89c0-10.261-8.39-18.68-18.68-18.68-2.977 0-5.811.709-8.334 1.956z" fill="#fbba58" fill-rule="evenodd"/></g><g><path clip-rule="evenodd" d="m435.613 212.559c6.151 3.09 10.375 9.439 10.375 16.724v13.89 9.468c0 7.285-4.224 13.635-10.375 16.724 2.523 1.247 5.357 1.956 8.334 1.956 10.261 0 18.68-8.419 18.68-18.68v-9.468-13.89c0-10.261-8.419-18.68-18.68-18.68-2.977 0-5.811.709-8.334 1.956z" fill="#fbba58" fill-rule="evenodd"/></g><g><path clip-rule="evenodd" d="m146.684 427.851c-15.137 15.562-30.585 28.942-46.034 39.912h86.143v-39.912z" fill="#b57f5f" fill-rule="evenodd"/></g><g><path clip-rule="evenodd" d="m432.013 360.046c-4.677 56.466-8.475 108.057-54.169 144.454h101.251c9.949 0 18.085-8.164 18.085-18.113v-178.867h-86.993-147.313-76.08l.028 25.569h208.2c29.253-.001 39.599-4.564 36.991 26.957z" fill="#d9eeff" fill-rule="evenodd"/></g><g><path d="m93.026 192.733h43.823c6.792 0 12.319-5.526 12.319-12.319v-43.824c0-6.792-5.526-12.319-12.319-12.319h-43.823c-6.792 0-12.319 5.526-12.319 12.319v43.824c0 6.793 5.526 12.319 12.319 12.319zm2.681-53.462h38.46v38.461h-38.46z"/><path d="m93.026 294.1h43.823c6.792 0 12.319-5.526 12.319-12.319v-43.824c0-6.792-5.526-12.319-12.319-12.319h-43.823c-6.792 0-12.319 5.526-12.319 12.319v43.824c0 6.793 5.526 12.319 12.319 12.319zm2.681-53.461h38.46v38.461h-38.46z"/><path d="m93.026 395.467h43.823c6.792 0 12.319-5.526 12.319-12.319v-43.824c0-6.792-5.526-12.319-12.319-12.319h-43.823c-6.792 0-12.319 5.526-12.319 12.319v43.824c0 6.793 5.526 12.319 12.319 12.319zm2.681-53.461h38.46v38.461h-38.46z"/><path d="m173.953 181.763h66.159c4.142 0 7.5-3.358 7.5-7.5s-3.358-7.5-7.5-7.5h-66.159c-4.142 0-7.5 3.358-7.5 7.5s3.358 7.5 7.5 7.5z"/><path d="m173.953 150.241h89.686c4.142 0 7.5-3.358 7.5-7.5s-3.358-7.5-7.5-7.5h-89.686c-4.142 0-7.5 3.358-7.5 7.5s3.358 7.5 7.5 7.5z"/><path d="m272.967 339.694c-3.225-2.601-7.947-2.091-10.546 1.132l-23.371 28.992-9.144-8.057c-3.108-2.739-7.848-2.439-10.585.668-2.739 3.108-2.439 7.847.668 10.585l15.023 13.238c1.375 1.212 3.14 1.873 4.958 1.873.212 0 .425-.009.637-.027 2.039-.174 3.918-1.173 5.202-2.766l28.289-35.093c2.6-3.224 2.093-7.946-1.131-10.545z"/><path d="m297.881 373.499h28.289c4.142 0 7.5-3.358 7.5-7.5s-3.358-7.5-7.5-7.5h-28.289c-4.142 0-7.5 3.358-7.5 7.5s3.358 7.5 7.5 7.5z"/><path d="m386.773 358.499h-28.289c-4.142 0-7.5 3.358-7.5 7.5s3.358 7.5 7.5 7.5h28.289c4.142 0 7.5-3.358 7.5-7.5s-3.357-7.5-7.5-7.5z"/><path d="m250.231 442.49h-28.289c-4.142 0-7.5 3.358-7.5 7.5s3.358 7.5 7.5 7.5h28.289c4.142 0 7.5-3.358 7.5-7.5s-3.357-7.5-7.5-7.5z"/><path d="m451.543 442.49h-28.289c-4.142 0-7.5 3.358-7.5 7.5s3.358 7.5 7.5 7.5h28.289c4.142 0 7.5-3.358 7.5-7.5s-3.357-7.5-7.5-7.5z"/><path d="m333.57 423.685c-3.225-2.601-7.947-2.092-10.546 1.132l-23.371 28.992-9.144-8.057c-3.108-2.739-7.848-2.439-10.585.668-2.739 3.108-2.439 7.847.668 10.585l15.023 13.238c1.375 1.212 3.14 1.873 4.958 1.873.212 0 .425-.009.637-.027 2.039-.174 3.918-1.173 5.202-2.766l28.289-35.093c2.6-3.225 2.093-7.946-1.131-10.545z"/><path d="m386.773 442.49h-28.289c-4.142 0-7.5 3.358-7.5 7.5s3.358 7.5 7.5 7.5h28.289c4.142 0 7.5-3.358 7.5-7.5s-3.357-7.5-7.5-7.5z"/><path d="m470.083 339.694c-3.225-2.601-7.946-2.091-10.546 1.132l-23.371 28.992-9.144-8.057c-3.108-2.739-7.847-2.439-10.585.668-2.739 3.108-2.439 7.847.668 10.585l15.023 13.238c1.375 1.212 3.14 1.873 4.958 1.873.212 0 .425-.009.637-.027 2.039-.174 3.918-1.173 5.202-2.766l28.289-35.093c2.6-3.224 2.094-7.946-1.131-10.545z"/><path d="m497.18 235.673h-27.054v-6.39c0-14.436-11.744-26.18-26.18-26.18s-26.18 11.745-26.18 26.18v6.39h-66.806v-162.777c0-15.671-12.749-28.42-28.419-28.42h-68.396c-2.838-6.737-9.507-11.48-17.264-11.48h-21.146c-3.527-18.759-20.031-32.996-39.798-32.996-19.78 0-36.296 14.237-39.826 32.996h-21.146c-7.746 0-14.405 4.743-17.239 11.48h-68.393c-15.67 0-28.419 12.749-28.419 28.42v373.948c0 15.67 12.749 28.419 28.419 28.419h149.961v11.124c0 14.123 11.49 25.613 25.613 25.613h274.188c14.107 0 25.585-11.49 25.585-25.613v-173.581c3.847-2.476 6.406-6.787 6.406-11.693v-51.533c0-7.668-6.238-13.907-13.906-13.907zm-64.413-6.39c0-6.165 5.016-11.18 11.18-11.18s11.18 5.016 11.18 11.18v23.358c0 6.165-5.015 11.18-11.18 11.18s-11.18-5.016-11.18-11.18zm-96.806-156.387v162.778h-24.911v-134.744c0-9.137-7.434-16.571-16.57-16.571h-38.874v-24.883h66.936c7.399 0 13.419 6.02 13.419 13.42zm-224.692-21.175c0-2.019 1.693-3.725 3.697-3.725h27.949c4.142 0 7.5-3.358 7.5-7.5 0-14.058 11.45-25.496 25.523-25.496 14.058 0 25.494 11.438 25.494 25.496 0 4.142 3.358 7.5 7.5 7.5h27.949c2.054 0 3.725 1.671 3.725 3.725v32.639h-129.337zm-81.936 408.542c-7.399 0-13.419-6.02-13.419-13.419v-373.948c0-7.4 6.02-13.42 13.419-13.42h66.936v24.884h-38.873c-9.153 0-16.599 7.434-16.599 16.571v140.826c0 4.142 3.358 7.5 7.5 7.5s7.5-3.358 7.5-7.5v-140.827c0-.852.732-1.571 1.599-1.571h237.084c.851 0 1.57.719 1.57 1.571v134.743h-29.814v-6.39c0-14.436-11.744-26.18-26.18-26.18s-26.18 11.745-26.18 26.18v6.39h-27.053c-7.668 0-13.906 6.238-13.906 13.906v51.534c0 4.894 2.547 9.196 6.378 11.675v107.562h-121.899c-.867 0-1.599-.72-1.599-1.571v-142.383c0-4.142-3.358-7.5-7.5-7.5s-7.5 3.358-7.5 7.5v142.384c0 9.137 7.446 16.571 16.599 16.571h121.898v24.912zm221.902-230.98v23.358c0 6.165-5.015 11.18-11.18 11.18s-11.18-5.016-11.18-11.18v-23.358c0-6.165 5.016-11.18 11.18-11.18s11.18 5.016 11.18 11.18zm227.86 267.717h-274.188c-5.852 0-10.613-4.761-10.613-10.613v-171.367h130.997c4.142 0 7.5-3.358 7.5-7.5s-3.358-7.5-7.5-7.5h-137.375v-49.347h25.959v1.968c0 14.436 11.745 26.18 26.18 26.18s26.18-11.744 26.18-26.18v-1.968h151.531v1.968c0 14.436 11.744 26.18 26.18 26.18s26.18-11.744 26.18-26.18v-1.968h25.96v49.347h-136.156c-4.142 0-7.5 3.358-7.5 7.5s3.358 7.5 7.5 7.5h129.75v171.367c0 5.852-4.748 10.613-10.585 10.613z"/></g></g></svg>