<svg id="Flat" height="512" viewBox="0 0 512 512" width="512" xmlns="http://www.w3.org/2000/svg"><path d="m336 88-40 112h24l8 64h32v72l112-32v-216z" fill="#f7cca9"/><path d="m472 72h-144l-24-8s30.5-40 88-40 96 40 96 40z" fill="#ad6643"/><path d="m416 432a40 40 0 0 1 -40 40l-232-80 56-160h64l-2.59 15.53-21.41 128.47 136 16a40 40 0 0 1 40 40z" fill="#2b4266"/><path d="m328 72-40 24 96 24 8 24h16l32 64 32 16v-152z" fill="#4f5659"/><path d="m288 488h200l-8-200-136 48z" fill="#2b4266"/><path d="m144 128h56v96h-56z" fill="#7e8589"/><path d="m200 120h64v112h-64z" fill="#4f5659"/><path d="m160 272-16-48 8-16h48l8 16 8 48z" fill="#f7cca9"/><path d="m144 224-32 8v-112l32 8z" fill="#6a7073"/><path d="m24 256h24l40-8 24-16v-112l-24-24-40-8h-24l24 32v16l-24 16v40l24 16v16z" fill="#7e8589"/><path d="m192 432-32-160h56l24 104h168a40 40 0 0 1 0 80z" fill="#34507b"/><path d="m208 88h32v32h-32z" fill="#9aa3a8"/><path d="m335.994 232a8 8 0 0 1 -1.934-15.763l32-8a8 8 0 0 1 3.88 15.522l-32 8a8.007 8.007 0 0 1 -1.946.241z" fill="#bf6f6f"/><circle cx="352" cy="152" fill="#414649" r="8"/><path d="m490.73 255.52-176 64a24.457 24.457 0 0 1 -8.23 1.31c-9.5 0-20.5-4.39-25.25-12.53-.09-.15-.18-.31-.27-.47-.07-.12-.14-.25-.2-.38s-.12-.26-.17-.4a5.923 5.923 0 0 1 -.25-.66l-.16-.52-18.6-59.5-21.24-67.98a8.005 8.005 0 0 1 15.28-4.78l39.69 127.02c2.25 2.95 10.16 5.21 13.96 3.84l175.98-63.99a8 8 0 0 1 5.46 15.04z" fill="#9aa3a8"/></svg>