<svg id="Layer_1" enable-background="new 0 0 463.996 463.996" height="512" viewBox="0 0 463.996 463.996" width="512" xmlns="http://www.w3.org/2000/svg"><path d="m349.588 359.611h-.01c-1.23-.44-40.79-14.06-43.09-14.86-21.782-7.508-36.49-28.052-36.49-51.19 35.82-14.9 61-50.23 61-91.44 0-3.478-.04-3.13.06-3.13 13.8 0 25.015-11.18 25.015-24.97v-94.75c-.06-17.74-12.035-33.24-29.085-38.19l-13.86-4.03 5.82-15.34c3.96-10.46-3.76-21.695-14.95-21.705h-94.99c-32.382-.02-61.716 19.549-73.89 49.915-14.91-.01-27.035 12.08-27.045 26.99v97.46c-.01 13.319 10.754 24.55 24.925 24.55v3.2c0 41.21 25.18 76.54 61 91.44 0 23.086-14.658 43.665-36.49 51.19-11.553 4.019-43.02 14.77-43.12 14.87-21.78 7.55-36.39 28.08-36.39 51.14v45.23c0 4.418 3.582 8 8 8h292c4.418 0 8-3.582 8-8v-45.23c0-23.07-14.62-43.6-36.41-51.15z" fill="#ffebd2"/><path d="m234.835 282.709c10.672 2.532 8.876 18.329-2.092 18.41-54.853.406-99.745-43.916-99.745-98.997v-50.348c0-3.34 2.091-6.318 5.221-7.498 2.15-.805 4.226-1.713 6.223-2.706 6.219-3.092 13.53 1.278 13.589 8.223.065 7.721.046 19.146-.033 36.33-.225 49.176 34.709 86.591 76.837 96.586z" fill="#fff3e4"/><path d="m265.559 311.253c-22.417 8.024-45.802 7.626-67.147-.011-3.611-1.292-5.776-5.007-5.147-8.79.483-2.906.732-5.878.732-8.89 23.648 9.843 51.204 10.321 76 0 0 3.012.249 5.984.732 8.89.631 3.791-1.551 7.505-5.17 8.801z" fill="#ffd9ad"/><path d="m207.248 240.736c-3.123-3.126-3.12-8.191.005-11.314 3.126-3.123 8.191-3.12 11.314.005 7.419 7.427 19.44 7.429 26.86 0 3.124-3.125 8.188-3.128 11.314-.005 3.125 3.123 3.128 8.188.005 11.314-13.673 13.687-35.822 13.689-49.498 0z" fill="#ffd9ad"/><path d="m206.998 190.991c-4.418 0-8-3.582-8-8v-14c0-4.418 3.582-8 8-8s8 3.582 8 8v14c0 4.419-3.582 8-8 8z" fill="#585966"/><path d="m256.998 190.991c-4.418 0-8-3.582-8-8v-14c0-4.418 3.582-8 8-8s8 3.582 8 8v14c0 4.419-3.582 8-8 8z" fill="#585966"/><path d="m356.073 79.271v94.75c0 13.79-11.215 24.97-25.015 24.97-.1 0-.06 2.115-.06-44.059 0-4.69-4.017-8.394-8.687-7.97-48.891 4.438-97.214-8.235-137.52-36.278-3.92-2.728-9.363-1.491-11.617 2.719-8.082 15.094-20.532 25.464-34.955 30.872-3.135 1.175-5.221 4.151-5.221 7.498v47.148c-14.167 0-24.935-11.226-24.925-24.55v-97.46c.01-14.91 12.135-27 27.045-26.99 11.878-29.626 40.716-49.935 73.89-49.915h94.99c11.19.01 18.91 11.245 14.95 21.705l-5.82 15.34 13.86 4.03c17.05 4.95 29.055 20.45 29.085 38.19z" fill="#585966"/><path d="m304.038 19.991c-69.988-.028-70.571-.559-80.69 1.53-24.151 4.724-45.511 20.969-56.416 44.224-1.114 2.375-3.344 4.09-5.937 4.487-12.937 1.978-22.891 13.16-22.9 26.679v43.193c-.001 2.189-.891 4.306-2.503 5.786-1.617 1.485-2.594 3.6-2.594 5.883 0 50.768.117 47.148-.21 47.148-12.888 0-23.431-9.835-24.62-22.02-.197-1.819-.171 4.98-.095-99.99.011-14.829 12.044-26.99 27.045-26.99 12.322-30.735 41.981-49.92 73.85-49.92 0 0 95.65.05 95.98.07 12.655.667 11.904 19.926-.91 19.92z" fill="#6e6f80"/><path d="m349.588 359.611h-.01c-1.23-.44-40.79-14.06-43.09-14.86-11.015-3.797-21.047-11.272-27.86-21.87l-32.56 36.38h-28.14l-32.56-36.38c-6.811 10.595-16.843 18.072-27.86 21.87-11.553 4.019-43.02 14.77-43.12 14.87-21.78 7.55-36.39 28.08-36.39 51.14v45.23c0 4.418 3.582 8 8 8h292c4.418 0 8-3.582 8-8v-45.23c0-23.07-14.62-43.6-36.41-51.15z" fill="#cbe3fa"/><path d="m204.138 343.851c-5.891 5.891-13.05 10.287-20.63 12.9-11.553 4.019-43.02 14.77-43.12 14.87-21.78 7.55-36.39 28.08-36.39 51.14v33.23c0 4.418-3.582 8-8 8h-10c-4.418 0-8-3.582-8-8v-45.23c0-23.06 14.61-43.59 36.39-51.14.1-.1 31.612-10.867 43.12-14.87 11.015-3.797 21.047-11.272 27.86-21.87z" fill="#eef7ff"/><path d="m299.708 341.871-10.385 43.27c-1.457 6.07-8.998 8.205-13.423 3.802l-29.832-29.682 32.56-36.38c5.13 7.98 12.35 14.59 21.08 18.99z" fill="#eef7ff"/><path d="m283.225 381.655c4.697 4.674-2.17 12.417-7.326 7.288l-29.832-29.682 32.56-36.38c1.709 2.651 3.642 5.155 5.785 7.472 1.818 1.966 1.866 4.981.08 6.976l-10.805 12.071c-6.05 6.75-5.75 17.05.68 23.44z" fill="#fff"/><path d="m185.368 322.881 32.56 36.38-29.832 29.682c-4.425 4.403-11.964 2.269-13.421-3.802l-10.388-43.26c8.731-4.4 15.951-11.02 21.081-19z" fill="#eef7ff"/><path d="m190.783 328.928c2.204 2.461 2.259 6.206.051 8.665-4.061 4.524-8.926 12.136-6.297 23.099l5.303 22.091c.532 2.216-.13 4.552-1.745 6.16-4.429 4.411-11.967 2.267-13.421-3.802-11.545-48.205-10.388-43.164-10.388-43.27 8.73-4.4 15.95-11.01 21.08-18.99z" fill="#fff"/><path d="m246.068 359.261 17.93 104.73h-64l17.93-104.73z" fill="#ff6d7a"/><path d="m247.071 365.138c.543 3.183-.908 6.337-3.61 8.104-7.53 4.926-12.994 12.852-14.604 22.269l-10.582 61.829c-.657 3.842-3.988 6.65-7.885 6.65h-10.393l17.93-104.73h28.14z" fill="#ff8c95"/><path d="m450.288 370.971c13.12 1.91 18.35 18.03 8.86 27.28l-19.99 19.49 4.72 27.52c2.24 13.06-11.47 23.03-23.2 16.86l-24.72-13-24.71 13c-11.73 6.17-25.444-3.8-23.204-16.86l4.724-27.52-19.999-19.49c-9.49-9.25-4.25-25.37 8.86-27.28l27.635-4.01 12.355-25.04c5.87-11.88 22.82-11.88 28.68 0l12.359 25.04z" fill="#ffe773"/><path d="m410.299 341.921c2.616 5.299.965 11.654-3.805 15.143-1.97 1.441-3.661 3.394-4.874 5.857l-9.553 19.353c-1.757 3.56-5.154 6.028-9.083 6.598l-21.354 3.099c-4.333.633-7.807 2.815-10.173 5.787-4.458 5.6-12.628 6.402-17.752 1.404l-.936-.911c-9.49-9.25-4.26-25.37 8.86-27.28l27.635-4.01 12.355-25.04c5.86-11.88 22.813-11.881 28.68 0z" fill="#fff0a6"/><path d="m371.755 444.607-1.191 6.953c-1.85 10.796-16.672 13.058-21.304 3.132-2.402-5.147-1.289-9.014-.362-14.432 1.538-8.991 12.532-12.567 19.063-6.199l.538.525c2.667 2.601 3.885 6.349 3.256 10.021z" fill="#fff0a6"/><path d="m122.368 370.971c13.11 1.91 18.35 18.03 8.86 27.28l-20 19.49 4.72 27.52c2.24 13.06-11.47 23.03-23.2 16.86l-24.71-13-24.72 13c-11.73 6.17-25.44-3.8-23.2-16.86l4.72-27.52-19.99-19.49c-9.49-9.25-4.26-25.37 8.86-27.28l27.63-4.01 12.36-25.04c5.86-11.88 22.81-11.88 28.68 0l12.35 25.04z" fill="#ffe773"/><g fill="#fff0a6"><path d="m82.378 341.921c2.616 5.299.963 11.654-3.806 15.143-1.97 1.441-3.661 3.394-4.874 5.857l-9.553 19.353c-1.757 3.56-5.154 6.028-9.083 6.598l-21.354 3.099c-4.333.633-7.807 2.815-10.173 5.787-4.458 5.6-12.628 6.402-17.752 1.404l-.935-.911c-9.49-9.25-4.26-25.37 8.86-27.28l27.63-4.01 12.36-25.04c5.86-11.88 22.813-11.881 28.68 0z"/><path d="m43.833 444.607-1.191 6.953c-1.85 10.796-16.672 13.058-21.304 3.132-2.4-5.143-1.294-8.996-.362-14.432 1.541-8.991 12.532-12.567 19.063-6.199l.538.525c2.667 2.601 3.885 6.349 3.256 10.021z"/><path d="m409.998 234.991h-6v-6c0-4.418-3.582-8-8-8s-8 3.582-8 8v6h-6c-4.418 0-8 3.582-8 8s3.582 8 8 8h6v6c0 4.418 3.582 8 8 8s8-3.582 8-8v-6h6c4.418 0 8-3.582 8-8s-3.582-8-8-8z"/><path d="m437.998 139.991h-6v-6c0-4.418-3.582-8-8-8s-8 3.582-8 8v6h-6c-4.418 0-8 3.582-8 8s3.582 8 8 8h6v6c0 4.418 3.582 8 8 8s8-3.582 8-8v-6h6c4.418 0 8-3.582 8-8s-3.582-8-8-8z"/><path d="m84.998 248.991h-6v-6c0-4.418-3.582-8-8-8s-8 3.582-8 8v6h-6c-4.418 0-8 3.582-8 8s3.582 8 8 8h6v6c0 4.418 3.582 8 8 8s8-3.582 8-8v-6h6c4.418 0 8-3.582 8-8s-3.582-8-8-8z"/><path d="m50.998 127.991h6c4.418 0 8-3.582 8-8s-3.582-8-8-8h-6v-6c0-4.418-3.582-8-8-8s-8 3.582-8 8v6h-6c-4.418 0-8 3.582-8 8s3.582 8 8 8h6v6c0 4.418 3.582 8 8 8s8-3.582 8-8z"/></g></svg>